<svg width="24" height="24" viewBox="0 0 24 24" fill="none" xmlns="http://www.w3.org/2000/svg">
<path d="M23.3167 9.83747C23.4566 10.6429 23.5264 11.4589 23.5252 12.2764C23.5252 15.9273 22.2203 19.0142 19.9493 21.1036H19.9523C17.9664 22.938 15.2365 24 11.9996 24C8.81711 24 5.76497 22.7358 3.5146 20.4854C1.26424 18.235 0 15.1829 0 12.0004C0 8.8179 1.26424 5.76576 3.5146 3.51539C5.76497 1.26503 8.81711 0.000791804 11.9996 0.000791804C14.9784 -0.0340946 17.8552 1.08501 20.0273 3.12369L16.6015 6.54958C15.3631 5.36908 13.7103 4.72262 11.9996 4.74963C8.86921 4.74963 6.20979 6.86157 5.26183 9.70547C4.7592 11.1957 4.7592 12.8096 5.26183 14.2998H5.26633C6.21879 17.1392 8.87371 19.2512 12.0041 19.2512C13.6211 19.2512 15.01 18.8372 16.087 18.1052H16.0825C16.7078 17.6909 17.2427 17.1542 17.6549 16.5275C18.0672 15.9008 18.3481 15.1971 18.4809 14.4588H11.9996V9.83897L23.3167 9.83747Z" fill="#FFF4E8"/>
</svg>
