<svg width="38" height="38" viewBox="0 0 38 38" fill="none" xmlns="http://www.w3.org/2000/svg">
<path d="M0 14.25C0 11.6301 2.13008 9.5 4.75 9.5H4.86875C5.41797 6.79102 7.81523 4.75 10.6875 4.75C11.8008 4.75 12.8398 5.0543 13.723 5.58125C14.7102 3.68125 16.7066 2.375 19 2.375C21.2934 2.375 23.2898 3.68125 24.277 5.58125C25.1602 5.0543 26.1992 4.75 27.3125 4.75C30.1848 4.75 32.582 6.79102 33.1312 9.5H33.25C35.8699 9.5 38 11.6301 38 14.25C38 15.1184 37.7699 15.9273 37.3617 16.625H0.638281C0.230078 15.9273 0 15.1184 0 14.25ZM0 21.0336C0 19.9129 0.912891 19 2.03359 19H35.9664C37.0871 19 38 19.9129 38 21.0336C38 26.266 34.7047 30.734 30.0809 32.4707L29.9473 33.5469C29.7988 34.7344 28.7895 35.625 27.5871 35.625H10.4055C9.21055 35.625 8.19375 34.7344 8.04531 33.5469L7.91172 32.4781C3.29531 30.734 0 26.266 0 21.0336Z" fill="#F7921C"/>
</svg>
