<svg width="39" height="38" viewBox="0 0 39 38" fill="none" xmlns="http://www.w3.org/2000/svg">
<path d="M30.602 7.35051C29.6311 7.04445 28.54 6.89586 27.2794 6.81807C25.8385 6.72916 24.0875 6.72916 21.9392 6.72917H17.0903C14.5516 6.72916 12.5614 6.72915 10.9714 6.88032C9.35079 7.03441 8.02379 7.3539 6.85399 8.07076C5.62898 8.82145 4.59902 9.8514 3.84833 11.0764C3.82173 11.1198 3.79569 11.1634 3.77017 11.2073C3.89255 8.9223 4.21221 7.40893 5.04712 6.21089C5.48404 5.58394 6.01289 5.03259 6.61426 4.57708C8.47633 3.16667 11.1325 3.16667 16.4449 3.16667H24.9454C27.6169 3.16667 28.9526 3.16667 29.7825 4.03188C30.4199 4.69638 30.5677 5.67194 30.602 7.35051Z" fill="#F7921C"/>
<path d="M4.86069 11.6969C3.69409 13.6006 3.69409 16.1921 3.69409 21.375C3.69409 26.5579 3.69409 29.1494 4.86069 31.0531C5.51346 32.1183 6.40908 33.014 7.47431 33.6667C9.37803 34.8333 11.9695 34.8333 17.1524 34.8333H21.9024C27.0854 34.8333 29.6768 34.8333 31.5805 33.6667C32.6458 33.014 33.5414 32.1183 34.1942 31.0531C34.9603 29.8028 35.2233 28.2559 35.3136 25.8731H25.2851C22.2444 25.8731 19.7795 23.4082 19.7795 20.3675C19.7795 17.3268 22.2444 14.8618 25.2851 14.8618H35.1671C35.0084 13.5513 34.7196 12.5543 34.1942 11.6969C33.5414 10.6317 32.6458 9.73604 31.5805 9.08327C31.2773 8.89744 30.9566 8.74121 30.6108 8.60987C28.7855 7.91667 26.2598 7.91667 21.9024 7.91667H17.1524C11.9695 7.91667 9.37803 7.91667 7.47431 9.08327C6.40908 9.73604 5.51346 10.6317 4.86069 11.6969Z" fill="#F7921C"/>
<path fill-rule="evenodd" clip-rule="evenodd" d="M35.3258 17.2368H25.2851C23.5561 17.2368 22.1545 18.6384 22.1545 20.3675C22.1545 22.0965 23.5561 23.4981 25.2851 23.4981H35.3571C35.3608 22.8424 35.3608 22.1367 35.3608 21.375C35.3608 19.7644 35.3608 18.404 35.3258 17.2368ZM25.2851 19.18C24.6293 19.18 24.0976 19.7116 24.0976 20.3675C24.0976 21.0233 24.6293 21.555 25.2851 21.555H29.6033C30.2592 21.555 30.7908 21.0233 30.7908 20.3675C30.7908 19.7116 30.2592 19.18 29.6033 19.18H25.2851Z" fill="#F7921C"/>
</svg>
