<svg width="39" height="38" viewBox="0 0 39 38" fill="none" xmlns="http://www.w3.org/2000/svg">
<path d="M20.2431 6.33333C20.2431 5.6775 19.7114 5.14583 19.0556 5.14583C18.3997 5.14583 17.8681 5.6775 17.8681 6.33333L17.8681 17.8125H6.38892C5.73308 17.8125 5.20142 18.3442 5.20142 19C5.20142 19.6558 5.73308 20.1875 6.38892 20.1875H17.8681V31.6667C17.8681 32.3225 18.3997 32.8542 19.0556 32.8542C19.7114 32.8542 20.2431 32.3225 20.2431 31.6667V20.1875H31.7222C32.3781 20.1875 32.9097 19.6558 32.9097 19C32.9097 18.3442 32.3781 17.8125 31.7222 17.8125H20.2431L20.2431 6.33333Z" fill="#F7921C"/>
</svg>
