<svg width="18" height="18" viewBox="0 0 18 18" fill="none" xmlns="http://www.w3.org/2000/svg">
<g id="ep:clock">
<path id="Vector" d="M9 15.75C9.88642 15.75 10.7642 15.5754 11.5831 15.2362C12.4021 14.897 13.1462 14.3998 13.773 13.773C14.3998 13.1462 14.897 12.4021 15.2362 11.5831C15.5754 10.7642 15.75 9.88642 15.75 9C15.75 8.11358 15.5754 7.23583 15.2362 6.41689C14.897 5.59794 14.3998 4.85382 13.773 4.22703C13.1462 3.60023 12.4021 3.10303 11.5831 2.76381C10.7642 2.42459 9.88642 2.25 9 2.25C7.20979 2.25 5.4929 2.96116 4.22703 4.22703C2.96116 5.4929 2.25 7.20979 2.25 9C2.25 10.7902 2.96116 12.5071 4.22703 13.773C5.4929 15.0388 7.20979 15.75 9 15.75ZM9 16.875C6.91142 16.875 4.90838 16.0453 3.43153 14.5685C1.95469 13.0916 1.125 11.0886 1.125 9C1.125 6.91142 1.95469 4.90838 3.43153 3.43153C4.90838 1.95469 6.91142 1.125 9 1.125C11.0886 1.125 13.0916 1.95469 14.5685 3.43153C16.0453 4.90838 16.875 6.91142 16.875 9C16.875 11.0886 16.0453 13.0916 14.5685 14.5685C13.0916 16.0453 11.0886 16.875 9 16.875Z" fill="#F7921C"/>
<path id="Vector_2" d="M8.4375 4.5C8.58668 4.5 8.72976 4.55926 8.83525 4.66475C8.94074 4.77024 9 4.91332 9 5.0625V9.5625C9 9.71168 8.94074 9.85476 8.83525 9.96025C8.72976 10.0657 8.58668 10.125 8.4375 10.125C8.28832 10.125 8.14524 10.0657 8.03975 9.96025C7.93426 9.85476 7.875 9.71168 7.875 9.5625V5.0625C7.875 4.91332 7.93426 4.77024 8.03975 4.66475C8.14524 4.55926 8.28832 4.5 8.4375 4.5Z" fill="#F7921C"/>
<path id="Vector_3" d="M8.4375 9H12.9375C13.3125 9 13.5 9.1875 13.5 9.5625C13.5 9.9375 13.3125 10.125 12.9375 10.125H8.4375C8.0625 10.125 7.875 9.9375 7.875 9.5625C7.875 9.1875 8.0625 9 8.4375 9Z" fill="#F7921C"/>
</g>
</svg>
