<svg width="303" height="272" viewBox="0 0 303 272" fill="none" xmlns="http://www.w3.org/2000/svg">
<path d="M122.001 252.887C94.8498 263.987 66.6217 247.692 50.2064 232.634C33.7911 217.576 25.628 194.275 23.6186 183.625C21.6092 172.975 22.9632 165.763 29.4403 179.948C35.9174 194.132 49.5467 207.375 49.5467 207.375C49.5467 207.375 23.609 168.831 24.3544 155.15C24.5794 151.021 30.1953 134.128 38.4555 156.325C46.7156 178.521 64.5493 196.06 64.5493 196.06C64.5493 196.06 30.6429 147.652 38.7059 133.371C41.0298 130.76 46.667 128.442 50.4552 139.706C54.2434 150.97 79.9539 186.876 79.9539 186.876C79.9539 186.876 46.0751 135.917 53.967 129.541C69.3393 115.51 95.4404 201.328 120.857 186.217C122.068 185.497 129.399 177.221 124.069 164.571C118.74 151.92 116.218 150.734 111.355 145.387C105.35 138.784 100.424 134.214 103.275 130.079C119.871 120.738 150.425 151.196 156.11 181.33C162.54 215.409 147.964 242.273 122.001 252.887Z" fill="url(#paint0_linear_120_101)"/>
<path d="M237.337 7.00835L202.458 211.703C201.967 214.586 199.468 216.695 196.543 216.695H48.5262C44.8066 216.695 41.9832 213.345 42.6128 209.679L77.767 4.98492C78.2616 2.10523 80.7586 0.000488281 83.6804 0.000488281H231.423C235.139 0.000488281 237.962 3.3447 237.337 7.00835Z" fill="url(#paint1_linear_120_101)"/>
<path d="M238.531 0.000488281L205.637 216.695H62.923L96.0762 0.000488281H238.531Z" fill="url(#paint2_linear_120_101)"/>
<path d="M239.132 196.206L261.668 211.195C264.14 212.84 262.976 216.693 260.006 216.693H210.97C207.887 216.693 206.81 212.6 209.493 211.082L235.993 196.092C236.977 195.536 238.191 195.58 239.132 196.206Z" fill="url(#paint3_linear_120_101)"/>
<path d="M238.529 3.76389L265.282 207.657C265.618 210.223 262.767 211.982 260.624 210.531L238.117 195.282C237.285 194.718 236.79 193.776 236.8 192.771L238.529 3.76389Z" fill="url(#paint4_linear_120_101)"/>
<path d="M238.525 0.000488281L266.06 211.491C266.423 214.274 263.283 216.142 261.011 214.496L238.717 198.354C237.138 197.211 236.213 195.372 236.236 193.423L238.525 0.000488281Z" fill="url(#paint5_linear_120_101)"/>
<path fill-rule="evenodd" clip-rule="evenodd" d="M232.738 38.0524L238.528 0L238.181 39.1193C238.221 39.3284 238.241 39.5508 238.239 39.7864L237.088 195.438C237.08 196.455 236.558 197.399 235.701 197.945L208.99 214.98C206.806 216.372 204.002 214.529 204.415 211.973L232.277 39.2864C232.355 38.8043 232.516 38.3937 232.738 38.0524Z" fill="url(#paint6_linear_120_101)"/>
<path fill-rule="evenodd" clip-rule="evenodd" d="M238.531 0.000244141L215.439 46.2427H215.421L213.317 50.4528C212.301 52.4861 210.223 53.7706 207.95 53.7706H61.0927C57.0535 53.7706 54.2994 49.9245 55.2859 46.2427H55.0728L78.7432 0.000244141H82.4167H228.825H238.531Z" fill="url(#paint7_linear_120_101)"/>
<circle cx="47.5867" cy="47.5867" r="47.5867" transform="matrix(1 0 -0.164531 0.986372 95.7208 81.1939)" fill="white" fill-opacity="0.77"/>
<ellipse cx="39.2523" cy="38.9835" rx="39.2523" ry="38.9835" transform="matrix(1 0 -0.164531 0.986372 102.908 89.6796)" fill="white"/>
<path fill-rule="evenodd" clip-rule="evenodd" d="M141.425 95.5137C159.669 95.5137 172.028 110.104 169.026 128.1C166.024 146.096 148.798 160.686 130.554 160.686C112.31 160.686 99.9511 146.096 102.953 128.1C105.955 110.104 123.181 95.5137 141.425 95.5137Z" fill="#2394E0"/>
<path fill-rule="evenodd" clip-rule="evenodd" d="M106.47 144.934C105.009 142.022 104.096 138.76 103.824 135.265L109.18 138.034L108.927 139.747C108.821 140.378 107.512 141.714 107.078 142.223L106.47 144.934ZM149.923 98.9607C160.404 102.594 167.117 112.22 166.764 123.941L165.734 123.83C165.413 124.626 165.238 124.642 165.079 125.596C164.938 126.44 165.92 127.002 165.624 128.778C165.544 129.256 164.251 130.205 164.174 130.375L162.816 128.428L162.403 130.905L162.152 130.895L162.463 126.323L161.473 126.615L160.922 123.215L156.605 127.012L156.099 129.791L154.761 130.587L154.671 123.459L153.815 124.01L152.469 121.703L149.87 121.778L149.067 120.658L148.005 120.934L146.386 118.68L145.955 118.94L146.672 122.059H148.108L148.225 121.353H148.94C149.221 122.764 149.92 121.926 149.78 122.769C149.289 125.713 145.244 127.877 142.738 128.428C142.779 128.959 142.642 129.489 143.276 129.489C144.626 129.489 143.993 129.256 145.486 129.134C144.915 132.141 140.891 135.732 139.056 137.965L138.943 142.574C138.948 143.576 136.492 144.631 135.529 145.761L135.606 147.527L134.487 147.946C134.002 149.76 131.881 151.77 129.876 151.77H127.725C128.139 149.288 126.935 145.74 127.228 143.984C127.476 142.494 128.225 142.292 128.533 140.447C128.818 138.739 127.435 136.294 127.509 135.848L127.982 133.016H126.546C126.463 132.226 126.642 131.955 125.648 131.955H125.287C123.723 131.955 123.869 132.661 122.298 132.661H120.863C119.567 132.661 117.959 128.566 118.043 128.062L118.751 123.819C119.056 121.99 121.088 119.995 122.389 119.221L122.684 117.455L124.567 115.837L125.49 115.689C127.415 115.689 127.36 114.628 128.538 114.628H131.764L131.351 117.105L134.65 118.601L135.236 117.089C136.782 117.46 137.083 118.166 139.062 118.166H139.777C141.138 118.166 141.51 116.384 141.744 114.983L138.826 115.264L138.02 112.581L136.724 112.904C136.79 113.864 136.975 113.467 136.839 114.278C136.76 114.755 136.353 114.808 136.001 114.983L135.277 111.875L132.919 109.993L132.507 110.337L134.388 112.697C133.945 113.546 133.499 115.991 132.532 114.278L133.797 113.721L131.377 110.698L129.511 111.372L127.507 113.005C127.105 114.32 126.634 114.983 125.236 114.983C124.306 114.983 124.905 114.745 123.5 114.628L124.09 111.09H127.316L126.66 108.736L126.234 108.969L126.353 108.258L131.993 105.877C132.02 105.134 131.83 105.532 131.965 104.721C131.973 104.673 132.431 104.021 132.444 104.01L133.66 104.843L133.591 103.32L131.429 103.745L131.35 101.894C133.15 101.035 137.307 98.0008 138.468 98.0008H139.544C140.678 98.0008 143.527 99.1039 143.911 99.7669L141.082 99.4805L142.927 101.215L143.256 100.472L144.919 100.043L145.104 99.0615H145.825L145.648 100.122L149.923 98.9607Z" fill="#A1E367"/>
<path d="M180.999 252.887C208.15 263.987 236.378 247.692 252.794 232.634C269.209 217.576 277.372 194.275 279.381 183.625C281.391 172.975 280.037 165.763 273.56 179.948C267.083 194.132 253.453 207.375 253.453 207.375C253.453 207.375 279.391 168.831 278.646 155.15C278.421 151.021 272.805 134.128 264.545 156.325C256.284 178.521 238.451 196.06 238.451 196.06C238.451 196.06 272.357 147.652 264.294 133.371C261.97 130.76 256.333 128.442 252.545 139.706C248.757 150.97 223.046 186.876 223.046 186.876C223.046 186.876 256.925 135.917 249.033 129.541C233.661 115.51 207.56 201.328 182.143 186.217C180.932 185.497 173.601 177.221 178.931 164.571C184.26 151.92 186.782 150.734 191.645 145.387C197.65 138.784 202.576 134.214 199.725 130.079C183.129 120.738 152.575 151.196 146.89 181.33C140.46 215.409 155.036 242.273 180.999 252.887Z" fill="url(#paint8_linear_120_101)"/>
<defs>
<linearGradient id="paint0_linear_120_101" x1="68.0199" y1="247.725" x2="109.69" y2="127.116" gradientUnits="userSpaceOnUse">
<stop stop-color="#D39B76"/>
<stop offset="1" stop-color="#FCCA9F"/>
</linearGradient>
<linearGradient id="paint1_linear_120_101" x1="154.216" y1="22.3152" x2="114.663" y2="213.713" gradientUnits="userSpaceOnUse">
<stop stop-color="#FBC412"/>
<stop offset="1" stop-color="#FFDD6F"/>
</linearGradient>
<linearGradient id="paint2_linear_120_101" x1="163.419" y1="22.3152" x2="119.488" y2="211.696" gradientUnits="userSpaceOnUse">
<stop stop-color="#FBC412"/>
<stop offset="1" stop-color="#FFDD6F"/>
</linearGradient>
<linearGradient id="paint3_linear_120_101" x1="234.753" y1="195.185" x2="234.753" y2="216.693" gradientUnits="userSpaceOnUse">
<stop stop-color="#D68757"/>
<stop offset="1" stop-color="#DF834B"/>
</linearGradient>
<linearGradient id="paint4_linear_120_101" x1="239.692" y1="8.90007" x2="255.286" y2="221.239" gradientUnits="userSpaceOnUse">
<stop stop-color="#663835"/>
<stop offset="0.520833" stop-color="#91524E"/>
<stop offset="1" stop-color="#91524E"/>
</linearGradient>
<linearGradient id="paint5_linear_120_101" x1="238.525" y1="7.83855" x2="251.164" y2="217.487" gradientUnits="userSpaceOnUse">
<stop stop-color="#FCCD27"/>
<stop offset="1" stop-color="#B66D00"/>
</linearGradient>
<linearGradient id="paint6_linear_120_101" x1="238.241" y1="5.6362" x2="222.641" y2="216.548" gradientUnits="userSpaceOnUse">
<stop offset="0.47606" stop-color="#EAB91B"/>
<stop offset="1" stop-color="#7D5006"/>
</linearGradient>
<linearGradient id="paint7_linear_120_101" x1="145.792" y1="0.000244141" x2="145.792" y2="46.7804" gradientUnits="userSpaceOnUse">
<stop stop-color="#FBC412"/>
<stop offset="1" stop-color="#FFE07A"/>
</linearGradient>
<linearGradient id="paint8_linear_120_101" x1="234.98" y1="247.725" x2="193.31" y2="127.116" gradientUnits="userSpaceOnUse">
<stop stop-color="#D39B76"/>
<stop offset="1" stop-color="#FCCA9F"/>
</linearGradient>
</defs>
</svg>
