<svg width="243" height="62" viewBox="0 0 243 62" fill="none" xmlns="http://www.w3.org/2000/svg">
<path d="M27.7827 57.5886C21.5997 60.1163 15.1715 56.4055 11.4333 52.9763C7.69511 49.5472 5.83616 44.2411 5.37856 41.8158C4.92097 39.3906 5.22932 37.7482 6.70432 40.9784C8.17931 44.2086 11.2831 47.2242 11.2831 47.2242C11.2831 47.2242 5.37637 38.4468 5.54611 35.3314C5.59735 34.391 6.87625 30.5441 8.7573 35.5988C10.6384 40.6534 14.6995 44.6476 14.6995 44.6476C14.6995 44.6476 6.97818 33.6238 8.81432 30.3716C9.34355 29.7772 10.6273 29.2491 11.4899 31.8143C12.3526 34.3795 18.2076 42.556 18.2076 42.556C18.2076 42.556 10.4925 30.9515 12.2897 29.4996C15.7903 26.3043 21.7342 45.8473 27.5223 42.4059C27.7979 42.2421 29.4674 40.3574 28.2537 37.4766C27.0401 34.5958 26.4658 34.3257 25.3584 33.1079C23.9909 31.6042 22.8691 30.5637 23.5183 29.622C27.2977 27.4947 34.2555 34.4308 35.5503 41.2931C37.0146 49.0539 33.6952 55.1715 27.7827 57.5886Z" fill="url(#paint0_linear_324_2011)"/>
<path d="M53.124 7.00786L46.7601 44.3548C46.2688 47.238 43.7702 49.3469 40.8454 49.3469H16.5462C12.8266 49.3469 10.0032 45.9973 10.6328 42.3313L17.0468 4.98443C17.5413 2.10474 20.0383 0 22.9602 0H47.2092C50.9257 0 53.7483 3.34421 53.124 7.00786Z" fill="url(#paint1_linear_324_2011)"/>
<path d="M54.3181 0L46.8272 49.3469H14.3275L21.8773 0H54.3181Z" fill="url(#paint2_linear_324_2011)"/>
<path d="M54.011 49.3468C51.6942 49.3468 50.8846 46.2713 52.9012 45.1306C53.6405 44.7124 54.5522 44.7453 55.2594 45.2158C57.1174 46.4516 56.2425 49.3468 54.011 49.3468Z" fill="url(#paint3_linear_324_2011)"/>
<path d="M54.3176 0.8573L59.7608 42.3428C60.0891 44.8447 57.3082 46.5607 55.2192 45.1454C54.408 44.5958 53.9258 43.6765 53.9347 42.6966L54.3176 0.8573Z" fill="url(#paint4_linear_324_2011)"/>
<path d="M54.3176 0L60.0178 43.7819C60.3161 46.0726 57.7316 47.6105 55.8605 46.2558C54.5608 45.3147 53.7992 43.801 53.8182 42.1965L54.3176 0Z" fill="url(#paint5_linear_324_2011)"/>
<path fill-rule="evenodd" clip-rule="evenodd" d="M48.6078 37.5155L54.3162 0L53.9729 38.7282C54.0093 38.93 54.0279 39.1441 54.0262 39.3703L53.9975 43.2465C53.9959 43.4585 53.972 43.6674 53.9273 43.8702L53.9241 44.2353C53.9209 44.5945 53.7252 44.9244 53.4116 45.0996L53.2772 45.1746C53.0872 45.3966 52.8635 45.5924 52.6107 45.7537L51.9455 46.1779C51.5286 46.4438 51.0892 46.5917 50.6538 46.6393L48.684 47.739C47.9578 48.1445 47.0828 47.5378 47.2079 46.7155L47.5144 44.701C47.3424 44.241 47.2817 43.7225 47.3707 43.1706L48.0646 38.8703C48.1517 38.3299 48.3438 37.8793 48.6078 37.5155Z" fill="url(#paint6_linear_324_2011)"/>
<path fill-rule="evenodd" clip-rule="evenodd" d="M54.3181 0L49.0594 10.5306H48.689C47.5854 11.6117 46.0856 12.2449 44.4896 12.2449H21.4788C19.7951 12.2449 18.3347 11.5767 17.2755 10.5306H12.5398L17.9302 0H21.6038H44.612H54.3181Z" fill="url(#paint7_linear_324_2011)"/>
<ellipse cx="10.8367" cy="10.8367" rx="10.8367" ry="10.8367" transform="matrix(1 0 -0.164531 0.986372 21.7963 18.4897)" fill="white" fill-opacity="0.77"/>
<ellipse cx="8.93877" cy="8.87755" rx="8.93877" ry="8.87755" transform="matrix(1 0 -0.164531 0.986372 23.4332 20.4225)" fill="white"/>
<path fill-rule="evenodd" clip-rule="evenodd" d="M32.2045 21.7509C36.3592 21.7509 39.1736 25.0735 38.49 29.1716C37.8064 33.2697 33.8836 36.5923 29.7289 36.5923C25.5742 36.5923 22.7599 33.2697 23.4435 29.1716C24.127 25.0735 28.0498 21.7509 32.2045 21.7509Z" fill="#2394E0"/>
<path fill-rule="evenodd" clip-rule="evenodd" d="M24.2437 33.0053C23.911 32.3423 23.7031 31.5995 23.6411 30.8035L24.8609 31.434L24.8031 31.8241C24.7792 31.9678 24.4811 32.2722 24.3821 32.3882L24.2437 33.0053ZM34.1389 22.5361C36.5258 23.3635 38.0545 25.5556 37.9741 28.2249L37.7396 28.1995C37.6665 28.3807 37.6267 28.3843 37.5904 28.6017C37.5584 28.7937 37.782 28.9218 37.7145 29.3264C37.6963 29.4351 37.4019 29.6513 37.3844 29.6899L37.0751 29.2467L36.981 29.8107L36.9239 29.8083L36.9947 28.7672L36.7693 28.8336L36.6438 28.0594L35.6607 28.9242L35.5454 29.5571L35.2409 29.7382L35.2202 28.115L35.0254 28.2406L34.7187 27.7152L34.1269 27.7321L33.9441 27.4772L33.7022 27.54L33.3336 27.0267L33.2355 27.0859L33.3987 27.7961H33.7256L33.7524 27.6355H33.9153C33.9793 27.9567 34.1384 27.7659 34.1064 27.9579C33.9946 28.6283 33.0736 29.1211 32.5029 29.2467C32.5121 29.3674 32.4809 29.4882 32.6254 29.4882C32.9328 29.4882 32.7886 29.4351 33.1287 29.4073C32.9986 30.0921 32.0822 30.9098 31.6643 31.4183L31.6386 32.4679C31.6397 32.6961 31.0804 32.9365 30.8612 33.1938L30.8786 33.596L30.6239 33.6914C30.5134 34.1044 30.0305 34.5622 29.5738 34.5622H29.084C29.1783 33.9969 28.9041 33.1889 28.9707 32.7891C29.0274 32.4498 29.1979 32.4039 29.268 31.9835C29.3328 31.5946 29.018 31.0378 29.0349 30.9364L29.1425 30.2914H28.8155C28.7966 30.1114 28.8375 30.0499 28.6109 30.0499H28.5289C28.1726 30.0499 28.2058 30.2105 27.8482 30.2105H27.5213C27.2262 30.2105 26.8601 29.2781 26.8792 29.1633L27.0404 28.1971C27.1099 27.7804 27.5726 27.3263 27.8689 27.1499L27.936 26.7477L28.3648 26.3793L28.575 26.3455C29.0133 26.3455 29.001 26.104 29.2691 26.104H30.0038L29.9097 26.668L30.6611 27.0086L30.7944 26.6644C31.1464 26.7489 31.2152 26.9096 31.6658 26.9096H31.8286C32.1384 26.9096 32.2233 26.5037 32.2764 26.1849L31.6119 26.2489L31.4285 25.6378L31.1334 25.7114C31.1483 25.93 31.1904 25.8395 31.1596 26.0242C31.1414 26.133 31.0488 26.145 30.9687 26.1849L30.8039 25.4771L30.2668 25.0483L30.1729 25.1269L30.6012 25.6643C30.5004 25.8576 30.399 26.4144 30.1787 26.0242L30.4668 25.8974L29.9156 25.209L29.4908 25.3624L29.0344 25.7344C28.9428 26.0339 28.8356 26.1849 28.5173 26.1849C28.3054 26.1849 28.4418 26.1305 28.1218 26.104L28.2562 25.2984H28.9908L28.8415 24.7621L28.7445 24.8152L28.7715 24.6534L30.0558 24.1111C30.062 23.942 30.0187 24.0326 30.0495 23.8478C30.0514 23.8369 30.1557 23.6884 30.1586 23.6859L30.4355 23.8756L30.4199 23.5289L29.9274 23.6256L29.9096 23.204C30.3194 23.0084 31.266 22.3175 31.5305 22.3175H31.7754C32.0338 22.3175 32.6825 22.5687 32.77 22.7197L32.1257 22.6545L32.546 23.0494L32.6207 22.8803L32.9995 22.7825L33.0417 22.5591H33.2057L33.1654 22.8006L34.1389 22.5361Z" fill="#A1E367"/>
<path d="M41.2173 57.5886C47.4003 60.1163 53.8285 56.4055 57.5667 52.9763C61.3049 49.5472 63.1638 44.2411 63.6214 41.8158C64.079 39.3906 63.7707 37.7482 62.2957 40.9784C60.8207 44.2086 57.7169 47.2242 57.7169 47.2242C57.7169 47.2242 63.6236 38.4468 63.4539 35.3314C63.4026 34.391 62.1238 30.5441 60.2427 35.5988C58.3616 40.6534 54.3005 44.6476 54.3005 44.6476C54.3005 44.6476 62.0218 33.6238 60.1857 30.3716C59.6564 29.7772 58.3727 29.2491 57.5101 31.8143C56.6474 34.3795 50.7924 42.556 50.7924 42.556C50.7924 42.556 58.5075 30.9515 56.7103 29.4996C53.2097 26.3043 47.2658 45.8473 41.4777 42.4059C41.2021 42.2421 39.5326 40.3574 40.7463 37.4766C41.9599 34.5958 42.5342 34.3257 43.6416 33.1079C45.0091 31.6042 46.1309 30.5637 45.4817 29.622C41.7023 27.4947 34.7445 34.4308 33.4497 41.2931C31.9854 49.0539 35.3048 55.1715 41.2173 57.5886Z" fill="url(#paint8_linear_324_2011)"/>
<path d="M88.904 36V26.016H86.696V22.896H88.904V22.704C88.904 21.664 89.104 20.784 89.504 20.064C89.92 19.344 90.512 18.792 91.28 18.408C92.048 18.024 92.976 17.832 94.064 17.832C94.272 17.832 94.496 17.848 94.736 17.88C94.976 17.896 95.176 17.92 95.336 17.952V21.024C95.176 20.992 95.032 20.976 94.904 20.976C94.792 20.96 94.672 20.952 94.544 20.952C93.872 20.952 93.36 21.104 93.008 21.408C92.672 21.696 92.504 22.128 92.504 22.704V22.896H95.312V26.016H92.504V36H88.904ZM103.41 36.288C102.114 36.288 100.93 35.992 99.8579 35.4C98.8019 34.808 97.9539 34 97.3139 32.976C96.6899 31.936 96.3779 30.76 96.3779 29.448C96.3779 28.12 96.6899 26.944 97.3139 25.92C97.9539 24.896 98.8019 24.088 99.8579 23.496C100.93 22.904 102.114 22.608 103.41 22.608C104.706 22.608 105.882 22.904 106.938 23.496C107.994 24.088 108.834 24.896 109.458 25.92C110.098 26.944 110.418 28.12 110.418 29.448C110.418 30.76 110.098 31.936 109.458 32.976C108.834 34 107.994 34.808 106.938 35.4C105.882 35.992 104.706 36.288 103.41 36.288ZM103.41 33.048C104.066 33.048 104.634 32.896 105.114 32.592C105.61 32.288 105.994 31.864 106.266 31.32C106.554 30.776 106.698 30.152 106.698 29.448C106.698 28.744 106.554 28.128 106.266 27.6C105.994 27.056 105.61 26.632 105.114 26.328C104.634 26.008 104.066 25.848 103.41 25.848C102.754 25.848 102.178 26.008 101.682 26.328C101.186 26.632 100.794 27.056 100.506 27.6C100.234 28.128 100.098 28.744 100.098 29.448C100.098 30.152 100.234 30.776 100.506 31.32C100.794 31.864 101.186 32.288 101.682 32.592C102.178 32.896 102.754 33.048 103.41 33.048ZM119.043 36.288C117.747 36.288 116.563 35.992 115.491 35.4C114.435 34.808 113.587 34 112.947 32.976C112.323 31.936 112.011 30.76 112.011 29.448C112.011 28.12 112.323 26.944 112.947 25.92C113.587 24.896 114.435 24.088 115.491 23.496C116.563 22.904 117.747 22.608 119.043 22.608C120.339 22.608 121.515 22.904 122.571 23.496C123.627 24.088 124.467 24.896 125.091 25.92C125.731 26.944 126.051 28.12 126.051 29.448C126.051 30.76 125.731 31.936 125.091 32.976C124.467 34 123.627 34.808 122.571 35.4C121.515 35.992 120.339 36.288 119.043 36.288ZM119.043 33.048C119.699 33.048 120.267 32.896 120.747 32.592C121.243 32.288 121.627 31.864 121.899 31.32C122.187 30.776 122.331 30.152 122.331 29.448C122.331 28.744 122.187 28.128 121.899 27.6C121.627 27.056 121.243 26.632 120.747 26.328C120.267 26.008 119.699 25.848 119.043 25.848C118.387 25.848 117.811 26.008 117.315 26.328C116.819 26.632 116.427 27.056 116.139 27.6C115.867 28.128 115.731 28.744 115.731 29.448C115.731 30.152 115.867 30.776 116.139 31.32C116.427 31.864 116.819 32.288 117.315 32.592C117.811 32.896 118.387 33.048 119.043 33.048ZM134.34 36.288C133.06 36.288 131.916 35.984 130.908 35.376C129.9 34.768 129.1 33.944 128.508 32.904C127.932 31.864 127.644 30.712 127.644 29.448C127.644 28.168 127.94 27.016 128.532 25.992C129.124 24.952 129.924 24.128 130.932 23.52C131.94 22.912 133.068 22.608 134.316 22.608C135.276 22.608 136.124 22.792 136.86 23.16C137.612 23.512 138.204 24.016 138.636 24.672L138.084 25.392V17.832H141.684V36H138.324V33.6L138.66 34.344C138.212 34.984 137.604 35.472 136.836 35.808C136.068 36.128 135.236 36.288 134.34 36.288ZM134.772 33.048C135.428 33.048 136.004 32.896 136.5 32.592C136.996 32.288 137.38 31.864 137.652 31.32C137.94 30.776 138.084 30.152 138.084 29.448C138.084 28.744 137.94 28.12 137.652 27.576C137.38 27.032 136.996 26.608 136.5 26.304C136.004 26 135.428 25.848 134.772 25.848C134.116 25.848 133.524 26.008 132.996 26.328C132.484 26.632 132.084 27.056 131.796 27.6C131.508 28.128 131.364 28.744 131.364 29.448C131.364 30.152 131.508 30.776 131.796 31.32C132.084 31.864 132.484 32.288 132.996 32.592C133.524 32.896 134.116 33.048 134.772 33.048ZM153.08 36.288C151.8 36.288 150.608 36.056 149.504 35.592C148.416 35.128 147.464 34.48 146.648 33.648C145.832 32.816 145.192 31.84 144.728 30.72C144.28 29.6 144.056 28.376 144.056 27.048C144.056 25.72 144.28 24.496 144.728 23.376C145.176 22.24 145.808 21.264 146.624 20.448C147.44 19.616 148.392 18.976 149.48 18.528C150.584 18.064 151.784 17.832 153.08 17.832C154.376 17.832 155.536 18.048 156.56 18.48C157.6 18.912 158.48 19.488 159.2 20.208C159.92 20.928 160.432 21.728 160.736 22.608L157.448 24.192C157.144 23.328 156.608 22.616 155.84 22.056C155.088 21.48 154.168 21.192 153.08 21.192C152.024 21.192 151.096 21.44 150.296 21.936C149.496 22.432 148.872 23.12 148.424 24C147.992 24.864 147.776 25.88 147.776 27.048C147.776 28.216 147.992 29.24 148.424 30.12C148.872 31 149.496 31.688 150.296 32.184C151.096 32.68 152.024 32.928 153.08 32.928C154.168 32.928 155.088 32.648 155.84 32.088C156.608 31.512 157.144 30.792 157.448 29.928L160.736 31.512C160.432 32.392 159.92 33.192 159.2 33.912C158.48 34.632 157.6 35.208 156.56 35.64C155.536 36.072 154.376 36.288 153.08 36.288ZM166.681 36.288C165.737 36.288 164.921 36.136 164.233 35.832C163.545 35.528 163.017 35.096 162.649 34.536C162.281 33.96 162.097 33.28 162.097 32.496C162.097 31.76 162.265 31.112 162.601 30.552C162.937 29.976 163.449 29.496 164.137 29.112C164.841 28.728 165.713 28.456 166.753 28.296L170.761 27.648V30.288L167.401 30.888C166.889 30.984 166.497 31.152 166.225 31.392C165.953 31.616 165.817 31.944 165.817 32.376C165.817 32.776 165.969 33.088 166.273 33.312C166.577 33.536 166.953 33.648 167.401 33.648C167.993 33.648 168.513 33.52 168.961 33.264C169.409 33.008 169.753 32.664 169.993 32.232C170.249 31.784 170.377 31.296 170.377 30.768V27.36C170.377 26.864 170.177 26.448 169.777 26.112C169.393 25.776 168.865 25.608 168.193 25.608C167.553 25.608 166.985 25.784 166.489 26.136C166.009 26.488 165.657 26.952 165.433 27.528L162.553 26.16C162.809 25.424 163.217 24.792 163.777 24.264C164.337 23.736 165.009 23.328 165.793 23.04C166.577 22.752 167.433 22.608 168.361 22.608C169.465 22.608 170.441 22.808 171.289 23.208C172.137 23.608 172.793 24.168 173.257 24.888C173.737 25.592 173.977 26.416 173.977 27.36V36H170.617V33.888L171.433 33.744C171.049 34.32 170.625 34.8 170.161 35.184C169.697 35.552 169.177 35.824 168.601 36C168.025 36.192 167.385 36.288 166.681 36.288ZM176.617 36V22.896H179.977V26.04L179.737 25.584C180.025 24.48 180.497 23.736 181.153 23.352C181.825 22.952 182.617 22.752 183.529 22.752H184.297V25.872H183.169C182.289 25.872 181.577 26.144 181.033 26.688C180.489 27.216 180.217 27.968 180.217 28.944V36H176.617ZM192.187 36.288C190.795 36.288 189.587 35.984 188.563 35.376C187.539 34.752 186.747 33.92 186.187 32.88C185.627 31.84 185.347 30.688 185.347 29.424C185.347 28.112 185.635 26.944 186.211 25.92C186.803 24.896 187.595 24.088 188.587 23.496C189.579 22.904 190.699 22.608 191.947 22.608C192.987 22.608 193.907 22.776 194.707 23.112C195.507 23.432 196.179 23.888 196.723 24.48C197.283 25.072 197.707 25.76 197.995 26.544C198.283 27.312 198.427 28.152 198.427 29.064C198.427 29.32 198.411 29.576 198.379 29.832C198.363 30.072 198.323 30.28 198.259 30.456H188.443V27.816H196.219L194.515 29.064C194.675 28.376 194.667 27.768 194.491 27.24C194.315 26.696 194.003 26.272 193.555 25.968C193.123 25.648 192.587 25.488 191.947 25.488C191.323 25.488 190.787 25.64 190.339 25.944C189.891 26.248 189.555 26.696 189.331 27.288C189.107 27.88 189.019 28.6 189.067 29.448C189.003 30.184 189.091 30.832 189.331 31.392C189.571 31.952 189.939 32.392 190.435 32.712C190.931 33.016 191.531 33.168 192.235 33.168C192.875 33.168 193.419 33.04 193.867 32.784C194.331 32.528 194.691 32.176 194.947 31.728L197.827 33.096C197.571 33.736 197.163 34.296 196.603 34.776C196.059 35.256 195.411 35.632 194.659 35.904C193.907 36.16 193.083 36.288 192.187 36.288Z" fill="#F7921C"/>
<defs>
<linearGradient id="paint0_linear_324_2011" x1="15.4899" y1="56.413" x2="24.9793" y2="28.9471" gradientUnits="userSpaceOnUse">
<stop stop-color="#D39B76"/>
<stop offset="1" stop-color="#FCCA9F"/>
</linearGradient>
<linearGradient id="paint1_linear_324_2011" x1="35.1173" y1="5.08163" x2="26.1101" y2="48.6678" gradientUnits="userSpaceOnUse">
<stop stop-color="#FBC412"/>
<stop offset="1" stop-color="#FFDD6F"/>
</linearGradient>
<linearGradient id="paint2_linear_324_2011" x1="37.213" y1="5.08163" x2="27.2088" y2="48.2085" gradientUnits="userSpaceOnUse">
<stop stop-color="#FBC412"/>
<stop offset="1" stop-color="#FFDD6F"/>
</linearGradient>
<linearGradient id="paint3_linear_324_2011" x1="53.4587" y1="44.4489" x2="53.4587" y2="49.3468" gradientUnits="userSpaceOnUse">
<stop stop-color="#D68757"/>
<stop offset="1" stop-color="#DF834B"/>
</linearGradient>
<linearGradient id="paint4_linear_324_2011" x1="54.5824" y1="2.02694" x2="58.1335" y2="50.3819" gradientUnits="userSpaceOnUse">
<stop stop-color="#663835"/>
<stop offset="0.520833" stop-color="#91524E"/>
<stop offset="1" stop-color="#91524E"/>
</linearGradient>
<linearGradient id="paint5_linear_324_2011" x1="54.3176" y1="1.78493" x2="57.1958" y2="49.5273" gradientUnits="userSpaceOnUse">
<stop stop-color="#FCCD27"/>
<stop offset="1" stop-color="#B66D00"/>
</linearGradient>
<linearGradient id="paint6_linear_324_2011" x1="54.2564" y1="1.25219" x2="50.5657" y2="48.0756" gradientUnits="userSpaceOnUse">
<stop offset="0.47606" stop-color="#EAB91B"/>
<stop offset="1" stop-color="#7D5006"/>
</linearGradient>
<linearGradient id="paint7_linear_324_2011" x1="33.199" y1="0" x2="33.199" y2="10.6531" gradientUnits="userSpaceOnUse">
<stop stop-color="#FBC412"/>
<stop offset="1" stop-color="#FFE07A"/>
</linearGradient>
<linearGradient id="paint8_linear_324_2011" x1="53.5101" y1="56.413" x2="44.0207" y2="28.9471" gradientUnits="userSpaceOnUse">
<stop stop-color="#D39B76"/>
<stop offset="1" stop-color="#FCCA9F"/>
</linearGradient>
</defs>
</svg>
