<svg width="67" height="65" viewBox="0 0 67 65" fill="none" xmlns="http://www.w3.org/2000/svg">
<path d="M33.299 64.2925C51.6895 64.2925 66.598 49.9002 66.598 32.1463C66.598 14.3924 51.6895 0 33.299 0C14.9085 0 0 14.3924 0 32.1463C0 49.9002 14.9085 64.2925 33.299 64.2925Z" fill="#00AED6"/>
<path fill-rule="evenodd" clip-rule="evenodd" d="M52.7034 31.1477C52.5933 29.1922 51.6836 27.3572 50.1716 26.0407C48.6596 24.7242 46.6672 24.0325 44.6268 24.1156H23.5943C23.4113 24.1149 23.2303 24.0798 23.0615 24.0121C22.8927 23.9443 22.7394 23.8454 22.6105 23.7209C22.4815 23.5964 22.3795 23.4488 22.31 23.2864C22.2406 23.1241 22.2052 22.9502 22.2058 22.7748C22.2058 22.034 22.8267 21.434 23.5943 21.434H44.9055C44.8523 20.0834 44.3537 18.7838 43.4813 17.7223C42.6089 16.6608 41.4077 15.8922 40.0507 15.527C33.8414 14.4685 27.4862 14.4685 21.2769 15.527C19.5473 15.9424 17.9876 16.8465 16.8003 18.1221C15.613 19.3978 14.8527 20.986 14.6181 22.681C13.633 28.9904 13.633 35.4053 14.6181 41.7147C14.9792 43.5034 15.8979 45.1449 17.2527 46.4223C18.6075 47.6996 20.3346 48.5527 22.2058 48.8687C29.9135 49.793 37.7112 49.793 45.4188 48.8687C47.095 48.5335 48.6188 47.7012 49.7743 46.4897C50.9299 45.2781 51.6587 43.7486 51.8576 42.1178C52.5421 38.4986 52.8305 34.8232 52.7034 31.1477ZM45.7953 35.6483V36.839C45.7959 37.0145 45.7605 37.1884 45.6911 37.3507C45.6216 37.5131 45.5195 37.6607 45.3906 37.7852C45.2617 37.9097 45.1084 38.0086 44.9396 38.0763C44.7708 38.1441 44.5898 38.1792 44.4068 38.1798C44.2238 38.1792 44.0427 38.1441 43.8739 38.0763C43.7051 38.0086 43.5519 37.9097 43.423 37.7852C43.294 37.6607 43.1919 37.5131 43.1225 37.3507C43.0531 37.1884 43.0177 37.0145 43.0183 36.839V35.6483C42.7021 35.3784 42.4788 35.0228 42.3782 34.6285C42.2776 34.2342 42.3044 33.8199 42.455 33.4405C42.6056 33.0612 42.8729 32.7347 43.2215 32.5044C43.5701 32.2741 43.9835 32.1508 44.4068 32.151C44.8301 32.1508 45.2435 32.2741 45.592 32.5044C45.9406 32.7347 46.2079 33.0612 46.3585 33.4405C46.5092 33.8199 46.5359 34.2342 46.4353 34.6285C46.3347 35.0228 46.1115 35.3784 45.7953 35.6483Z" fill="white"/>
</svg>
