<svg width="24" height="24" viewBox="0 0 24 24" fill="none" xmlns="http://www.w3.org/2000/svg">
<g id="noto:motor-scooter">
<path id="Vector" d="M4.15126 23.1899C1.97813 22.9387 0.772507 20.9249 1.18313 18.9506C1.50376 17.4131 2.82563 15.8756 5.15813 16.1418C7.63126 16.4231 8.40376 18.7912 8.08688 20.3812C7.71563 22.2393 6.17626 23.4243 4.15126 23.1899Z" fill="#4D453C"/>
<path id="Vector_2" d="M5.00064 17.8651C5.99439 18.0601 6.72751 18.9095 6.53814 20.0382C6.33939 21.2251 5.29689 21.7182 4.26189 21.5289C3.16126 21.3264 2.61751 20.4282 2.79376 19.3351C2.95126 18.3489 3.96564 17.6626 5.00064 17.8651Z" fill="white"/>
<path id="Vector_3" d="M4.44191 21.2214C3.49878 21.1145 2.97378 20.2576 3.1519 19.4157C3.29065 18.7614 3.86628 18.107 4.87878 18.2195C5.95315 18.3395 6.28878 19.3482 6.15003 20.0251C5.99066 20.8182 5.32128 21.3226 4.44191 21.2214Z" fill="#B0B0B0"/>
<path id="Vector_4" d="M19.3613 23.2856C17.2369 23.0418 16.0594 21.0918 16.4606 19.1812C16.7738 17.6925 18.0675 16.2056 20.3456 16.4625C22.7625 16.7343 23.52 19.0275 23.2088 20.5668C22.845 22.3668 21.3394 23.5125 19.3613 23.2856Z" fill="#4D453C"/>
<path id="Vector_5" d="M20.1656 17.9532C21.2025 18.1557 21.9656 19.0407 21.7687 20.2163C21.5606 21.4538 20.5144 21.99 19.4344 21.7913C18.2887 21.5813 17.7169 20.6382 17.9006 19.5C18.0656 18.4725 19.0894 17.7432 20.1656 17.9532Z" fill="white"/>
<path id="Vector_6" d="M19.6219 21.33C18.7219 21.2287 18.2231 20.4168 18.3938 19.62C18.5269 18.9993 19.0744 18.3806 20.04 18.4875C21.0638 18.6 21.3844 19.5562 21.2531 20.1975C21.0975 20.9456 20.46 21.4237 19.6219 21.33Z" fill="#B0B0B0"/>
<path id="Vector_7" d="M18.5475 16.4624C18.5475 16.4624 20.1994 19.1287 20.4 19.5543C20.6006 19.9799 20.6119 20.3943 20.1994 20.6343C19.7625 20.8893 19.3575 20.5668 19.1175 20.1449C18.9338 19.8224 16.8131 16.6087 16.8131 16.6087L18.5475 16.4624Z" fill="#2F2F2F"/>
<path id="Vector_8" d="M18.9975 14.387C18.9975 14.387 19.1962 14.387 19.4231 14.4207C19.65 14.4563 19.7137 14.4751 19.7137 14.4751L19.3987 16.4288L17.7919 17.3551C17.7919 17.3551 17.0212 17.8238 16.3837 18.4313C16.2225 18.5851 15.975 18.4726 15.9919 18.4032C16.0087 18.3338 17.6681 14.6307 17.6681 14.6307L18.9975 14.387Z" fill="#FC8F02"/>
<path id="Vector_9" d="M22.3669 16.952C22.245 17.1357 21.3112 16.7738 19.8056 16.8338C18.7031 16.8788 17.7675 17.3757 17.7675 17.3757C17.7675 17.3757 18.3919 16.0857 18.8044 15.4913C19.32 14.747 19.71 14.4751 19.71 14.4751C19.71 14.4751 20.4787 14.5857 21.3956 15.3282C22.0762 15.8795 22.5112 16.7345 22.3669 16.952Z" fill="#FFA726"/>
<path id="Vector_10" d="M21.4219 15.9995C21.2813 16.1889 20.8088 15.7745 20.3757 15.602C19.9425 15.4295 19.5994 15.437 19.5 15.2682C19.4007 15.0976 19.3913 14.7639 19.8338 14.7714C20.5294 14.7882 21.6282 15.7201 21.4219 15.9995Z" fill="#FAD91A"/>
<path id="Vector_11" d="M15.2494 7.09131C15.2719 7.16818 15.8156 8.40006 15.8156 8.40006L15.0581 9.78193L14.0606 8.93443L13.7025 7.91818L15.2494 7.09131Z" fill="#5E636F"/>
<path id="Vector_12" d="M14.5087 7.74365C14.5087 7.74365 13.8319 8.13552 13.7025 8.06052C13.5731 7.98552 13.2075 6.9599 13.0481 6.92615C12.7425 6.86052 12.2812 6.72177 12.1762 6.16302C12.0131 5.3024 12.645 5.31177 12.645 5.31177L14.4994 5.80302L14.5087 7.74365Z" fill="#FC8F0B"/>
<path id="Vector_13" d="M14.4 4.00492C14.6062 3.9168 16.9294 4.04805 17.2669 4.12492C17.6044 4.2018 17.6044 4.70242 17.6044 4.70242L17.0587 6.7518C17.0587 6.7518 16.8619 6.83992 16.5562 6.83992C16.3387 6.83992 16.1737 6.90555 16.0444 6.97117C15.9131 7.0368 14.5069 7.74555 14.5069 7.74555L13.4812 5.90242L12.2812 5.53117C12.2812 5.53117 12.39 5.29117 12.8156 5.17117C13.2412 5.05117 13.6012 4.8993 13.8187 4.62555C14.04 4.35367 14.1919 4.09117 14.4 4.00492Z" fill="#FCB90A"/>
<path id="Vector_14" d="M14.9119 4.44005C14.865 4.62005 15.1519 4.87692 15.5119 5.09442C15.8719 5.31192 16.3631 5.52005 16.515 5.22567C16.6669 4.9313 16.8694 4.41192 16.5694 4.34255C16.2431 4.26567 14.9888 4.14567 14.9119 4.44005Z" fill="#FED519"/>
<path id="Vector_15" d="M17.5069 4.29948C17.7038 4.32198 18.0638 4.82823 17.8331 5.71698C17.6044 6.60011 17.1713 6.85323 16.8731 6.76323C16.5131 6.65448 16.6013 6.06573 16.785 5.32323C16.9313 4.75135 17.2894 4.27511 17.5069 4.29948Z" fill="#DEDFE2"/>
<path id="Vector_16" d="M10.2881 5.43372C10.2881 5.43372 12.8606 5.44497 13.1119 5.45622C13.3631 5.46747 13.6031 5.71872 13.5581 6.01309C13.515 6.30747 13.3294 6.48184 13.0669 6.48184C12.8044 6.48184 10.395 6.45934 10.395 6.45934C10.395 6.45934 10.1119 6.32809 10.1119 5.87059C10.1137 5.48809 10.2881 5.43372 10.2881 5.43372ZM13.3425 3.81934L13.365 5.00809C13.365 5.00809 13.4194 5.36997 13.6912 5.37934C14.0625 5.39059 14.0737 4.98747 14.0737 4.98747C14.0737 4.98747 14.0625 3.14622 14.0625 3.04684C14.0625 2.77497 13.845 2.28372 13.5169 1.90122C13.1887 1.51872 12.9056 1.28997 12.645 1.40997C12.3825 1.52997 12.3394 2.12997 12.3506 2.68497C12.3619 3.25122 12.4069 3.92247 12.6337 4.00497C12.9375 4.11372 13.3425 3.81934 13.3425 3.81934Z" fill="#464C4F"/>
<path id="Vector_17" d="M3.05627 12.8288C3.05627 12.8288 2.05315 12.5756 1.88815 12.6244C1.72315 12.6731 1.5544 12.9938 1.4494 13.4231C1.3519 13.8225 1.25252 14.3269 1.30315 14.3869C1.40065 14.5031 1.80002 14.5725 1.80002 14.5725C1.80002 14.5725 3.0169 13.5319 3.03565 13.4719C3.0544 13.4119 3.05627 12.8288 3.05627 12.8288Z" fill="#FF281D"/>
<path id="Vector_18" d="M15.4144 8.06812C15.4144 8.06812 14.3438 8.57062 14.1938 8.65312C14.0438 8.73749 13.9256 8.87062 14.0438 9.15562C14.16 9.44062 14.8969 11.7319 15.0131 12.5006C15.1294 13.2694 15.0638 14.1225 15.0638 14.1225L17.3381 14.625L17.7394 13.7044L15.4144 8.06812Z" fill="#FC8F0B"/>
<path id="Vector_19" d="M17.1544 14.0718L15.0637 14.1224C15.0637 14.1224 15.015 14.8012 14.6794 15.6112C14.4319 16.2055 13.95 17.1599 13.575 17.3999C13.4194 17.5012 12.8887 17.6512 12.3375 17.6512C11.8519 17.6512 11.4694 17.5124 11.1994 17.3455C10.8919 17.1543 10.7494 16.9649 10.7494 16.9649L8.62498 16.663L8.85936 19.4887L14.0437 19.5055L16.8375 16.7118L17.1544 14.0718Z" fill="#5F6364"/>
<path id="Vector_20" d="M9.77249 12.3524C10.0912 12.4049 10.8337 13.0256 10.8337 13.0256L10.695 13.6537L4.82062 15.0149L0.988115 15.6224C0.988115 15.6224 1.59374 14.3324 2.39437 13.3649C3.05437 12.5662 3.52312 12.2681 3.52312 12.2681L9.77249 12.3524Z" fill="#FE8D00"/>
<path id="Vector_21" d="M15.7987 7.87305C15.7987 7.87305 15.2475 8.13742 15.1106 8.21617C14.9044 8.33617 15.0637 8.8593 15.24 9.15742C15.4162 9.45555 16.1662 10.5337 16.5638 11.7524C16.8769 12.7105 16.8056 14.1974 16.7006 14.7749C16.6069 15.2924 15.6019 17.2387 15.1425 17.9437C14.6362 18.7218 14.1656 18.9055 13.7437 18.9899C13.0612 19.1268 10.7531 19.0255 10.035 18.8849C9.31687 18.7443 9.05625 18.3074 9.615 17.8012C10.1756 17.293 10.7456 16.9668 10.7456 16.9668C10.7456 16.9668 10.26 16.2937 10.3331 15.6487C10.3856 15.1762 10.6969 13.6537 10.6969 13.6537L7.58813 13.6199L4.92937 13.498L2.61375 14.0605C2.61375 14.0605 1.85625 14.353 1.21125 15.2474C0.719999 15.928 0.485624 16.6293 0.433125 16.8393C0.380625 17.0493 0.116249 17.8124 0.500626 17.9005C0.885 17.9887 6.33563 18.4443 6.79125 18.5137C7.24687 18.583 7.83937 18.4968 8.06063 19.078C8.2875 19.678 8.21812 20.2143 9.32063 20.2499C10.4231 20.2855 13.8994 20.6643 14.8162 19.9949C15.5794 19.4399 16.5975 18.3768 17.6288 16.6105C18.66 14.8443 19.125 14.3905 19.125 14.3905L19.0275 13.3405L17.3662 9.66742L15.9319 8.00617L15.7987 7.87305Z" fill="#FDB700"/>
<path id="Vector_22" d="M16.1925 7.70239C16.2975 7.66676 17.5725 8.94176 18.2944 10.4005C19.2562 12.343 19.1287 14.3943 19.1287 14.3943C19.1287 14.3943 18.6281 14.0736 18.435 13.6893C18.2419 13.3049 17.7169 11.6605 17.7169 11.6605C17.7169 11.6605 17.2275 10.5936 16.4569 9.38614C16.0762 8.78801 15.42 8.09426 15.5156 8.01739C15.6187 7.93301 16.1925 7.70239 16.1925 7.70239ZM8.49936 17.8686C8.30061 17.7561 9.10686 16.093 8.20124 14.9474C7.41374 13.9499 6.17249 13.828 4.87687 13.8805C3.80624 13.9236 2.32311 14.2124 2.32311 14.2124C2.32311 14.2124 4.33499 12.5511 7.50186 13.1455C9.91311 13.5993 9.93374 15.5061 9.67124 16.3293C9.38999 17.2068 8.62124 17.938 8.49936 17.8686Z" fill="#FED519"/>
<path id="Vector_23" d="M11.3681 12.692C11.3513 12.9188 11.3288 13.0988 10.9125 13.0951C10.4981 13.0913 8.83126 13.0257 6.85501 12.9732C4.87876 12.9207 4.19626 12.8682 3.84564 12.7463C3.49501 12.6245 3.35626 12.467 3.32064 12.0807C3.28501 11.6963 3.32064 10.8395 3.40876 10.5413C3.49689 10.2432 3.68814 10.157 4.14376 10.1382C4.56564 10.1213 5.84064 10.1213 6.03376 10.1213C6.43689 10.1213 7.80001 11.0307 7.99314 11.0663C8.18626 11.102 8.85001 11.1357 9.62064 11.1357C10.2506 11.1357 10.8094 11.1001 10.95 11.0832C11.0906 11.0663 11.4056 11.1676 11.4056 11.5201C11.4019 11.957 11.3813 12.5082 11.3681 12.692Z" fill="#464C4F"/>
<path id="Vector_24" d="M17.5969 11.6607C17.8631 11.5313 18.3619 11.8669 18.6281 12.7951C18.8775 13.6632 18.5513 14.1113 18.3188 14.0682C18.09 14.0251 18.0956 13.2676 17.8706 12.7613C17.6475 12.2551 17.3569 11.7769 17.5969 11.6607Z" fill="white"/>
</g>
</svg>
