<svg width="369" height="281" viewBox="0 0 369 281" fill="none" xmlns="http://www.w3.org/2000/svg">
<g clip-path="url(#clip0_259_1929)">
<path d="M147.655 58.2729H146.309V21.3627C146.309 18.5573 145.757 15.7794 144.685 13.1875C143.612 10.5957 142.04 8.2407 140.058 6.25699C138.076 4.27328 135.723 2.69972 133.134 1.62614C130.544 0.552567 127.769 2.37694e-06 124.966 0H46.8373C41.1767 -1.08008e-05 35.7479 2.25068 31.7452 6.25694C27.7426 10.2632 25.4939 15.6969 25.4939 21.3626V223.855C25.4939 226.661 26.046 229.439 27.1186 232.03C28.1912 234.622 29.7633 236.977 31.7452 238.961C33.7271 240.945 36.08 242.518 38.6695 243.592C41.259 244.665 44.0344 245.218 46.8372 245.218H124.966C130.626 245.218 136.055 242.967 140.058 238.961C144.061 234.955 146.309 229.521 146.309 223.855V84.5463H147.655V58.2729Z" fill="#3F3D56"/>
<path d="M125.827 5.55762H115.629C116.098 6.70849 116.277 7.95714 116.15 9.19358C116.023 10.43 115.595 11.6163 114.902 12.6479C114.209 13.6795 113.274 14.5248 112.178 15.1093C111.082 15.6937 109.859 15.9995 108.617 15.9996H63.8585C62.6167 15.9995 61.394 15.6937 60.2981 15.1093C59.2021 14.5248 58.2666 13.6795 57.574 12.6479C56.8813 11.6163 56.4527 10.43 56.326 9.19358C56.1993 7.95715 56.3783 6.70849 56.8473 5.55762H47.322C45.2289 5.55762 43.1563 5.97026 41.2225 6.77199C39.2886 7.57373 37.5315 8.74884 36.0515 10.2303C34.5714 11.7117 33.3974 13.4703 32.5963 15.4059C31.7953 17.3415 31.3831 19.416 31.3831 21.511V223.707C31.3831 225.802 31.7953 227.876 32.5963 229.812C33.3973 231.747 34.5714 233.506 36.0515 234.987C37.5315 236.469 39.2886 237.644 41.2224 238.446C43.1562 239.247 45.2289 239.66 47.322 239.66H125.827C127.92 239.66 129.993 239.247 131.927 238.446C133.86 237.644 135.617 236.469 137.097 234.987C138.578 233.506 139.752 231.747 140.553 229.812C141.354 227.876 141.766 225.802 141.766 223.707V21.511C141.766 19.416 141.354 17.3415 140.553 15.4059C139.752 13.4703 138.578 11.7117 137.097 10.2303C135.617 8.74884 133.86 7.57373 131.927 6.77199C129.993 5.97026 127.92 5.55761 125.827 5.55762Z" fill="white"/>
<path d="M172.697 245.253H0.452087C0.332186 245.253 0.217195 245.205 0.132413 245.12C0.0476301 245.035 0 244.92 0 244.8C0 244.68 0.0476301 244.565 0.132413 244.48C0.217195 244.395 0.332186 244.348 0.452087 244.348H172.697C172.817 244.348 172.932 244.395 173.017 244.48C173.102 244.565 173.149 244.68 173.149 244.8C173.149 244.92 173.102 245.035 173.017 245.12C172.932 245.205 172.817 245.253 172.697 245.253Z" fill="#CBCBCB"/>
<path d="M86.5747 156.419C107.659 156.419 124.752 139.311 124.752 118.207C124.752 97.1035 107.659 79.9956 86.5747 79.9956C65.4901 79.9956 48.3977 97.1035 48.3977 118.207C48.3977 139.311 65.4901 156.419 86.5747 156.419Z" fill="#FBC412"/>
<path d="M82.7916 132.784C81.9327 132.785 81.0966 132.507 80.4095 131.992L80.3669 131.96L71.3948 125.09C70.9792 124.771 70.6305 124.373 70.3685 123.92C70.1065 123.466 69.9364 122.965 69.8678 122.445C69.7993 121.926 69.8336 121.398 69.9689 120.892C70.1042 120.385 70.3378 119.911 70.6564 119.495C70.9749 119.079 71.3722 118.73 71.8256 118.468C72.2789 118.205 72.7794 118.035 73.2985 117.966C73.8176 117.898 74.3451 117.932 74.8509 118.068C75.3567 118.203 75.831 118.437 76.2465 118.756L82.0579 123.216L95.7906 105.284C96.109 104.868 96.5061 104.52 96.9593 104.257C97.4124 103.995 97.9127 103.825 98.4316 103.757C98.9505 103.688 99.4778 103.722 99.9834 103.858C100.489 103.993 100.963 104.227 101.378 104.545L101.38 104.546L101.294 104.665L101.382 104.546C102.22 105.191 102.768 106.142 102.906 107.191C103.044 108.239 102.761 109.3 102.119 110.14L85.9664 131.223C85.5927 131.709 85.1123 132.102 84.5623 132.372C84.0123 132.642 83.4076 132.781 82.7951 132.779L82.7916 132.784Z" fill="white"/>
<path d="M313.859 249.009C314.323 248.257 314.87 247.56 315.489 246.929C315.744 246.664 316.013 246.415 316.291 246.172C317.979 244.668 320.037 243.642 322.253 243.198C324.468 242.754 326.762 242.908 328.899 243.646C331.035 244.384 332.936 245.677 334.407 247.394C335.878 249.111 336.866 251.189 337.269 253.415C339.133 246.514 334.28 239.716 329.4 234.494C324.517 229.274 318.937 223.547 318.965 216.395C318.979 212.415 320.924 208.864 323.861 206.232C323.951 206.152 324.042 206.072 324.134 205.995C327.684 202.95 332.251 201.357 336.923 201.534C345.603 202 353.181 207.839 358.444 214.764C366.916 225.908 370.628 241.551 364.698 254.236C359.481 265.393 348.355 272.018 337 277.344C335.415 278.088 333.832 278.81 332.253 279.509C332.243 279.512 332.231 279.519 332.221 279.522C332.145 279.555 332.069 279.589 331.998 279.623C331.672 279.767 331.346 279.911 331.023 280.053L331.172 280.151L331.639 280.454C331.477 280.356 331.317 280.26 331.155 280.162C331.107 280.133 331.056 280.105 331.008 280.075C325.431 276.726 319.777 273.182 315.924 267.954C311.928 262.525 310.322 254.748 313.859 249.009Z" fill="#F1F1F1"/>
<path d="M351.067 236.401C352.302 239.212 353.12 242.189 353.497 245.238C353.793 247.956 353.682 250.703 353.167 253.388C352.059 258.906 349.644 264.077 346.124 268.467C343.469 271.799 340.403 274.782 337 277.345C335.415 278.088 333.832 278.81 332.253 279.509C332.243 279.512 332.231 279.519 332.221 279.522C332.145 279.555 332.069 279.589 331.998 279.623C331.672 279.767 331.346 279.911 331.023 280.053L331.172 280.151L331.639 280.454C331.477 280.356 331.317 280.26 331.155 280.162C331.107 280.133 331.056 280.105 331.008 280.075C332.235 275.778 332.416 271.249 331.534 266.868C330.653 262.487 328.735 258.381 325.941 254.895C323.133 251.453 319.552 248.723 315.489 246.93C315.744 246.665 316.013 246.415 316.291 246.172C317.856 246.891 319.354 247.748 320.768 248.731C325.826 252.23 329.624 257.266 331.6 263.093C333.363 268.38 333.584 274.06 332.235 279.468C332.515 279.285 332.795 279.097 333.069 278.91C338.264 275.403 343.052 271.192 346.659 266.027C349.77 261.662 351.76 256.599 352.455 251.283C353.147 245.475 351.695 239.765 349.105 234.583C346.244 229.04 342.64 223.914 338.392 219.347C334.125 214.655 329.301 210.504 324.026 206.984C323.907 206.904 323.824 206.781 323.793 206.641C323.762 206.501 323.786 206.354 323.861 206.232C323.917 206.12 324.016 206.035 324.134 205.995C324.195 205.98 324.258 205.978 324.319 205.991C324.38 206.003 324.437 206.029 324.487 206.067C325.138 206.502 325.784 206.94 326.421 207.392C331.733 211.157 336.557 215.567 340.782 220.522C344.865 225.298 348.58 230.604 351.067 236.401Z" fill="white"/>
<path d="M237.364 17.7424C241.842 17.7424 245.472 14.1091 245.472 9.6273C245.472 5.14546 241.842 1.51221 237.364 1.51221C232.887 1.51221 229.257 5.14546 229.257 9.6273C229.257 14.1091 232.887 17.7424 237.364 17.7424Z" fill="#F1F1F1"/>
<path d="M338.18 126.342C340.91 126.342 343.123 124.126 343.123 121.394C343.123 118.661 340.91 116.446 338.18 116.446C335.45 116.446 333.237 118.661 333.237 121.394C333.237 124.126 335.45 126.342 338.18 126.342Z" fill="#F1F1F1"/>
<path d="M193.512 139.917C196.242 139.917 198.455 137.702 198.455 134.969C198.455 132.237 196.242 130.021 193.512 130.021C190.782 130.021 188.569 132.237 188.569 134.969C188.569 137.702 190.782 139.917 193.512 139.917Z" fill="#F1F1F1"/>
<path d="M196.303 281H368.548C368.668 281 368.783 280.953 368.868 280.868C368.952 280.783 369 280.668 369 280.548C369 280.428 368.952 280.313 368.868 280.228C368.783 280.143 368.668 280.095 368.548 280.095H196.303C196.183 280.095 196.068 280.143 195.983 280.228C195.898 280.313 195.851 280.428 195.851 280.548C195.851 280.668 195.898 280.783 195.983 280.868C196.068 280.953 196.183 281 196.303 281Z" fill="#CBCBCB"/>
<path d="M349.54 43.7271C349.766 42.1199 349.395 40.4854 348.498 39.1335C347.6 37.7816 346.239 36.8061 344.671 36.3919C343.103 35.9777 341.438 36.1535 339.991 36.8861C338.544 37.6187 337.415 38.8572 336.82 40.3667L322.842 56.4052L326.943 67.87L341 49.1297C341.917 49.4238 342.888 49.513 343.843 49.3911C344.799 49.2691 345.716 48.939 346.53 48.4239C347.344 47.9088 348.036 47.2213 348.556 46.4098C349.076 45.5983 349.412 44.6826 349.54 43.7271Z" fill="#FFB7B7"/>
<path d="M291.602 106.132L337.999 56.5708L331.741 46.6123L273.547 95.8728L291.602 106.132Z" fill="#3F3D56"/>
<path d="M281.247 76.0192C290.235 76.0192 297.522 68.7259 297.522 59.7293C297.522 50.7327 290.235 43.4395 281.247 43.4395C272.258 43.4395 264.971 50.7327 264.971 59.7293C264.971 68.7259 272.258 76.0192 281.247 76.0192Z" fill="#2F2E41"/>
<path d="M282.555 50.5271C286.057 46.9724 290.295 44.2294 294.97 42.4911C297.972 41.3782 301.238 40.6906 304.376 41.3226C307.514 41.9546 310.481 44.1272 311.356 47.2086C312.072 49.7283 311.333 52.4412 310.222 54.813C309.111 57.1849 307.628 59.3844 306.73 61.8448C305.813 64.3552 305.538 67.0551 305.928 69.6992C306.318 72.3433 307.362 74.848 308.965 76.9859C310.568 79.1238 312.679 80.8272 315.106 81.9415C317.533 83.0557 320.2 83.5456 322.865 83.3665C319.782 83.7803 316.94 85.2303 313.926 86.0022C310.913 86.7741 307.356 86.7217 305.117 84.5609C302.748 82.2747 302.7 78.5576 302.815 75.2655C302.985 70.3718 303.155 65.4781 303.326 60.5843C303.413 58.0886 303.487 55.5129 302.587 53.1835C301.688 50.8541 299.551 48.8143 297.056 48.8356C295.165 48.8516 293.492 49.9981 291.976 51.1288C290.459 52.2595 288.854 53.4658 286.971 53.634C285.087 53.8022 282.937 52.4071 283.078 50.5197L282.555 50.5271Z" fill="#2F2E41"/>
<path d="M219.432 169.108C217.87 169.543 216.203 169.388 214.746 168.674C213.29 167.961 212.146 166.737 211.531 165.235C210.915 163.733 210.872 162.058 211.409 160.526C211.945 158.995 213.024 157.713 214.442 156.925L228.502 140.959L240.394 143.531L223.668 159.928C224.079 160.8 224.294 161.751 224.298 162.715C224.302 163.679 224.095 164.633 223.691 165.508C223.288 166.383 222.697 167.159 221.961 167.781C221.225 168.403 220.362 168.856 219.432 169.108H219.432Z" fill="#FFB7B7"/>
<path d="M265.69 111.95L230.647 155.978L219.965 151.069L261.155 86.8848L265.69 111.95Z" fill="#3F3D56"/>
<path d="M237.729 244.896L229.377 244.765L230.381 273.257H237.727L237.729 244.896Z" fill="#FFB7B7"/>
<path d="M239.601 270.856L225.134 270.855H225.133C222.688 270.856 220.343 271.828 218.614 273.558C216.885 275.289 215.914 277.636 215.914 280.083V280.383L239.601 280.384L239.601 270.856Z" fill="#2F2E41"/>
<path d="M293.027 237.339L283.903 243.201L302.153 265.177L308.335 261.204L293.027 237.339Z" fill="#FFB7B7"/>
<path d="M308.616 258.171L296.441 265.994L296.441 265.995C294.383 267.317 292.935 269.403 292.414 271.795C291.893 274.186 292.343 276.686 293.664 278.746L293.826 278.998L313.758 266.189L308.616 258.171Z" fill="#2F2E41"/>
<path d="M296.277 150.337C296.277 150.337 276.006 82.9481 269.491 82.0375C262.976 81.1268 252.48 99.3287 252.48 99.3287C238.871 116.708 224.837 173.005 224.837 173.005C224.837 173.005 248.231 174.47 265.332 183.576C282.433 192.683 302.615 183.115 302.615 183.115L296.277 150.337Z" fill="#3F3D56"/>
<path opacity="0.1" d="M296.277 150.337C296.277 150.337 276.006 82.9483 269.491 82.0376C262.976 81.127 255.146 99.5136 255.146 99.5136C248.364 127.568 224.837 173.005 224.837 173.005C224.837 173.005 248.231 174.47 265.332 183.577C282.433 192.683 302.615 183.116 302.615 183.116L296.277 150.337Z" fill="black"/>
<path d="M279.646 130.175V164.037L283.627 213.09L303.519 250.194L294.025 256.982L266.9 221.687L256.172 186.642L239.323 264.222L226.665 263.317L235.456 155.754L252.138 125.477L279.646 130.175Z" fill="#2F2E41"/>
<path d="M259.207 97.4225C252.878 103.757 258.755 110.545 258.755 110.545L251.522 126.835L280.003 134.527L289.956 90.0114L283.175 82.7714C269.613 82.3189 269.605 82.0376 269.605 82.0376C267.229 84.3652 259.207 97.4225 259.207 97.4225Z" fill="#FBC412"/>
<path d="M291.104 85.3996C289.81 84.4439 288.34 83.7545 286.778 83.3715C285.217 82.9885 283.595 82.9194 282.006 83.1683C280.418 83.4172 278.894 83.979 277.524 84.8213C276.154 85.6636 274.965 86.7696 274.025 88.0752C266.865 98.0538 260.244 114.167 269.366 134.262C284.013 166.53 296.76 183.048 301.941 183.046C302.168 183.048 302.393 183.013 302.607 182.941C305.797 181.858 310.409 176.456 311.243 171.696C311.542 169.992 311.471 167.618 309.435 165.989C303.587 161.307 293.089 146.73 289.814 127.543C288.004 116.941 291.514 107.284 294.777 101.049C296.155 98.4697 296.558 95.4793 295.913 92.6263C295.267 89.7733 293.615 87.2488 291.261 85.5156L291.104 85.3996Z" fill="#3F3D56"/>
<path d="M282.084 74.4192C287.889 71.2426 290.023 63.9568 286.849 58.1458C283.676 52.3348 276.396 50.1992 270.591 53.3757C264.785 56.5523 262.651 63.8382 265.825 69.6492C268.999 75.4602 276.278 77.5958 282.084 74.4192Z" fill="#FFB7B7"/>
<path d="M259.489 62.9905H276.788L276.965 60.5046L277.852 62.9905H280.516L280.868 58.0635L282.626 62.9905H287.78V62.7464C287.776 59.3163 286.413 56.0278 283.99 53.6023C281.566 51.1768 278.281 49.8125 274.854 49.8086H272.415C268.988 49.8125 265.702 51.1768 263.279 53.6023C260.855 56.0277 259.492 59.3163 259.489 62.7464V62.9905Z" fill="#2F2E41"/>
<path d="M285.166 71.9261L292.549 69.5285V51.5845H278.604L278.95 51.9295C283.753 56.7309 289.095 73.7656 285.166 71.9261Z" fill="#2F2E41"/>
</g>
<defs>
<clipPath id="clip0_259_1929">
<rect width="369" height="281" fill="white"/>
</clipPath>
</defs>
</svg>
