<svg width="226" height="225" viewBox="0 0 226 225" fill="none" xmlns="http://www.w3.org/2000/svg">
<path fill-rule="evenodd" clip-rule="evenodd" d="M10.4006 64.6643L10.4018 64.6618C12.1111 61.007 15.016 57.9036 19.1445 55.3689C28.9982 49.3523 36.5804 40.2542 40.7092 29.4918C43.3521 21.7729 50.6617 16.615 58.8389 16.6994C71.0067 16.3093 82.7241 12.0146 92.251 4.45344C98.8871 -0.693565 106.194 -1.45843 113.625 2.57307C123.993 8.40696 136.021 10.6113 147.792 8.83475C152.518 8.14761 156.707 8.63086 160.333 10.3169C160.462 10.3768 160.589 10.4379 160.716 10.5008C160.846 10.5574 160.975 10.6157 161.104 10.6753C164.73 12.3617 167.794 15.2508 170.303 19.303C176.505 29.4375 185.93 37.209 197.076 41.3795C204.949 44.4642 209.058 50.5384 209.371 58.9163C209.686 71.0543 213.918 82.766 221.44 92.3125C226.762 98.5051 227.498 107.405 223.267 114.385C217.654 124.457 215.539 136.097 217.251 147.492C217.958 152.276 217.441 156.49 215.731 160.145L215.731 160.147C213.989 163.871 211.01 167.016 206.824 169.59C197.09 175.458 189.619 184.42 185.61 195.036C182.157 203.818 175.619 208.435 166.197 208.662C154.857 208.784 143.891 212.722 135.075 219.836C127.703 225.719 119.694 226.511 111.418 222.216C100.928 216.631 88.9183 214.551 77.1535 216.28C72.819 216.911 68.9796 216.423 65.6417 214.872L65.6314 214.867C65.5009 214.806 65.3712 214.744 65.2427 214.68C65.1103 214.623 64.9792 214.564 64.8488 214.504L64.8384 214.498C61.5012 212.945 58.6585 210.327 56.3563 206.609C50.1231 196.511 40.8052 188.673 29.773 184.249C21.1536 180.687 16.6137 174.061 16.3946 164.647C16.1921 153.339 12.1676 142.431 4.97273 133.689C-0.909168 126.346 -1.56454 118.384 2.96107 110.1C8.53949 100.215 10.6213 88.7458 8.87126 77.5382C8.15924 72.687 8.65888 68.3896 10.4006 64.6643Z" fill="white"/>
</svg>
